<svg width="32" height="32" viewBox="0 0 32 32" fill="none" xmlns="http://www.w3.org/2000/svg">
<path d="M26.2286 6.69371C26.2204 6.67788 26.2069 6.66547 26.1904 6.65871C24.2843 5.78414 22.2727 5.16051 20.2061 4.80341C20.1873 4.79992 20.1679 4.80244 20.1507 4.81061C20.1334 4.81877 20.1192 4.83218 20.11 4.84891C19.8361 5.34605 19.5874 5.8567 19.365 6.37891C17.1373 6.04075 14.8713 6.04075 12.6437 6.37891C12.4198 5.85538 12.1671 5.3446 11.8869 4.84891C11.8773 4.83254 11.863 4.81945 11.8458 4.81133C11.8287 4.80322 11.8095 4.80046 11.7907 4.80341C9.72391 5.15976 7.71223 5.78344 5.80632 6.65876C5.79001 6.66568 5.77624 6.67749 5.76692 6.69256C1.95547 12.3845 0.911371 17.9364 1.42357 23.4196C1.42501 23.4331 1.42914 23.4461 1.43571 23.4579C1.44228 23.4697 1.45116 23.4801 1.46182 23.4884C3.68119 25.1316 6.16359 26.386 8.80307 27.1978C8.82166 27.2034 8.84151 27.2031 8.85995 27.1971C8.87839 27.1911 8.89454 27.1795 8.90622 27.164C9.47312 26.3927 9.97544 25.5758 10.4081 24.7219C10.414 24.7102 10.4174 24.6973 10.418 24.6842C10.4186 24.6711 10.4165 24.658 10.4117 24.6458C10.4069 24.6335 10.3995 24.6225 10.3901 24.6133C10.3807 24.6041 10.3695 24.597 10.3571 24.5925C9.565 24.2894 8.79814 23.9241 8.06372 23.4999C8.05038 23.492 8.03918 23.481 8.0311 23.4678C8.02302 23.4546 8.01831 23.4396 8.0174 23.4242C8.01649 23.4087 8.01939 23.3933 8.02586 23.3792C8.03232 23.3652 8.04215 23.3529 8.05447 23.3436C8.20857 23.2281 8.36277 23.108 8.50992 22.9867C8.52299 22.9759 8.53881 22.969 8.5556 22.9668C8.57238 22.9645 8.58947 22.967 8.60492 22.9739C13.4164 25.1698 18.6254 25.1698 23.3799 22.9739C23.3954 22.9665 23.4127 22.9637 23.4297 22.9658C23.4467 22.9679 23.4628 22.9747 23.4761 22.9856C23.6233 23.1069 23.7775 23.2281 23.9327 23.3436C23.9451 23.3528 23.955 23.365 23.9616 23.379C23.9682 23.393 23.9712 23.4084 23.9704 23.4239C23.9696 23.4393 23.965 23.4543 23.957 23.4676C23.949 23.4808 23.9379 23.4919 23.9246 23.4999C23.1919 23.9276 22.4243 24.2928 21.6301 24.5914C21.6178 24.5961 21.6066 24.6033 21.5972 24.6126C21.5879 24.6219 21.5806 24.6331 21.5759 24.6455C21.5712 24.6578 21.5691 24.671 21.5699 24.6841C21.5706 24.6973 21.5741 24.7102 21.5801 24.7219C22.02 25.5711 22.5216 26.3869 23.0808 27.1627C23.0922 27.1786 23.1082 27.1905 23.1268 27.1968C23.1453 27.2031 23.1653 27.2034 23.184 27.1977C25.8282 26.3886 28.3149 25.1341 30.5371 23.4884C30.5479 23.4805 30.5569 23.4704 30.5635 23.4587C30.5701 23.447 30.5741 23.4341 30.5753 23.4208C31.1885 17.0816 29.5487 11.5752 26.2286 6.69371ZM11.1266 20.0809C9.67802 20.0809 8.48442 18.7516 8.48442 17.119C8.48442 15.4864 9.65487 14.1569 11.1266 14.1569C12.6099 14.1569 13.7919 15.4979 13.7688 17.1189C13.7688 18.7516 12.5983 20.0809 11.1266 20.0809ZM20.8956 20.0809C19.4471 20.0809 18.2535 18.7516 18.2535 17.119C18.2535 15.4864 19.4239 14.1569 20.8956 14.1569C22.379 14.1569 23.561 15.4979 23.5378 17.1189C23.5378 18.7516 22.379 20.0809 20.8956 20.0809Z" fill="#FAFBFC"/>
</svg>
