<svg width="32" height="32" viewBox="0 0 32 32" fill="none" xmlns="http://www.w3.org/2000/svg">
<path d="M5.82933 9.68513C5.84567 9.52282 5.82379 9.35893 5.76545 9.20659C5.7071 9.05425 5.61391 8.91767 5.49333 8.8078L3.00267 5.78513V5.33313H10.7333L16.7093 18.5398L21.9627 5.33313H29.3333V5.78513L27.204 7.8398C27.1138 7.90946 27.0442 8.00232 27.0026 8.10847C26.961 8.21461 26.9491 8.33005 26.968 8.44246V23.5545C26.9491 23.6669 26.961 23.7823 27.0026 23.8885C27.0442 23.9946 27.1138 24.0875 27.204 24.1571L29.284 26.2131V26.6665H18.8267V26.2145L20.98 24.1078C21.192 23.8945 21.192 23.8318 21.192 23.5065V11.2905L15.2027 26.6158H14.3947L7.42133 11.2905V21.5625C7.364 21.9945 7.50667 22.4291 7.808 22.7411L10.6093 26.1651V26.6158H2.66667V26.1651L5.46667 22.7411C5.61482 22.5865 5.72477 22.3994 5.78774 22.1948C5.85071 21.9901 5.86495 21.7736 5.82933 21.5625V9.68513Z" fill="#FAFBFC"/>
</svg>
