<svg width="633" height="497" viewBox="0 0 633 497" fill="none" xmlns="http://www.w3.org/2000/svg">
<ellipse cx="316.133" cy="112" rx="316.133" ry="112" transform="matrix(-1 0 0 1 632.633 272.5)" fill="url(#paint0_radial_47_17568)" fill-opacity="0.8"/>
<path d="M512.47 209.508C474.641 290.131 357.193 238.844 395.284 149.287C420.329 90.4655 530.151 92.5073 553.204 175.48C557.402 190.582 558.95 207.108 558.164 224.476C555.863 275.155 518.398 306.799 478.283 331.759C392.197 385.322 344.17 363.145 344.17 363.145C282.145 350.927 337.623 330.934 348.622 328.667C442.954 309.216 459.563 249.428 459.563 249.428" fill="#EA4531"/>
<path d="M512.47 209.508C474.641 290.131 357.193 238.844 395.284 149.287C420.329 90.4655 530.151 92.5073 553.204 175.48C557.402 190.582 558.95 207.108 558.164 224.476C555.863 275.155 518.398 306.799 478.283 331.759C392.197 385.322 344.17 363.145 344.17 363.145C282.145 350.927 337.623 330.934 348.622 328.667C442.954 309.216 459.563 249.428 459.563 249.428" stroke="#922C54" stroke-miterlimit="10" stroke-linecap="round"/>
<g style="mix-blend-mode:darken" opacity="0.2">
<path d="M362.525 334.568C413.433 327.417 472.792 295.748 474.149 246.453C469.181 249.169 452.945 251.028 436.645 247.753C436.478 247.669 436.304 247.594 436.145 247.503C436.145 247.303 436.2 247.194 436.2 247.194L434.931 246.836L433.836 246.194C412.663 238.944 395.443 221.067 390.467 199.974C385.333 178.172 390.657 145.395 410.489 128.06C401.267 137.453 386.84 159.454 397.165 167.23C399.752 169.18 412.06 159.088 412.06 159.088C427.058 123.843 469.657 106.583 508.637 119.343C528.603 129.902 545.268 148.312 552.728 175.28C556.926 190.373 558.473 206.95 557.68 224.268C555.378 274.913 525.77 298.382 487.266 326.009C406.569 383.93 343.631 362.937 343.631 362.937C339.591 362.145 336.052 361.311 332.965 360.436C317.451 348.952 353.757 335.809 362.525 334.568Z" fill="#922C54"/>
</g>
<path d="M276.757 252.32C276.757 252.32 342.219 241.311 373.906 247.244C454.985 262.446 380.635 340.227 383.167 339.752C385.698 339.277 431.884 341.202 433.471 355.178C435.058 369.346 374.414 365.179 355.971 363.162C340.409 361.495 336.291 358.878 330.037 351.444C323.784 344.01 325.157 333.768 295.716 331.668" fill="#EA4531"/>
<path d="M276.757 252.32C276.757 252.32 342.219 241.311 373.906 247.244C454.985 262.446 380.635 340.227 383.167 339.752C385.698 339.277 431.884 341.202 433.471 355.178C435.058 369.346 374.414 365.179 355.971 363.162C340.409 361.495 336.291 358.878 330.037 351.444C323.784 344.01 325.157 333.768 295.716 331.668" stroke="#922C54" stroke-miterlimit="10"/>
<g style="mix-blend-mode:darken" opacity="0.2">
<path d="M265.528 262.504C265.528 262.504 331.005 251.495 362.677 257.412C443.756 272.613 380.635 340.21 383.167 339.71C385.698 339.21 431.884 341.16 433.471 355.136C435.058 369.304 366.152 370.971 347.71 368.921C332.148 367.254 328.022 364.637 321.776 357.203C315.531 349.769 316.888 339.527 287.446 337.427" fill="#922C54"/>
</g>
<path d="M217.374 232.952C217.374 232.952 246.799 254.295 254.767 255.195C262.734 256.095 284.05 243.244 315.253 260.745C328.593 268.246 366.311 300.065 347.202 352.102C331.33 395.397 263.829 425.583 217.374 390.989C154.603 344.252 155.896 261.254 142.167 259.537C128.439 257.82 217.374 232.952 217.374 232.952Z" fill="#EA4531" stroke="#922C54" stroke-miterlimit="10" stroke-linecap="round"/>
<path d="M257.338 406.042C257.338 406.042 266.464 422.035 327.728 425.019C394.189 428.261 457.476 407.176 457.508 384.924C457.508 357.289 384.54 341.254 334.077 363.514" fill="#EA4531"/>
<path d="M257.338 406.042C257.338 406.042 266.464 422.035 327.728 425.019C394.189 428.261 457.476 407.176 457.508 384.924C457.508 357.289 384.54 341.254 334.077 363.514" stroke="#922C54" stroke-miterlimit="10" stroke-linecap="round"/>
<g style="mix-blend-mode:darken" opacity="0.2">
<path d="M315.253 371.398C367.74 355.305 453.739 370.823 450.834 398.258C432.169 414.801 381.381 427.577 328.577 425.002C277.289 422.502 263.782 412.084 257.362 406.025C257.362 406.025 262.33 395.599 284.145 384.357C294.198 379.243 304.595 374.911 315.253 371.398Z" fill="#922C54"/>
</g>
<g style="mix-blend-mode:darken" opacity="0.2">
<path d="M217.374 232.952C217.374 232.952 246.8 254.295 254.767 255.195C262.735 256.095 280.257 247.311 311.46 264.837C324.792 272.338 356.772 304.957 345.583 355.953C343.996 363.178 342.266 357.344 334.1 363.453C325.411 369.979 270.789 382.221 257.362 406.023C257.362 406.023 229.778 407.565 198.908 373.987C151.897 322.85 155.92 261.245 142.192 259.529C128.463 257.812 217.374 232.952 217.374 232.952Z" fill="#922C54"/>
</g>
<path d="M217.374 232.952C217.374 232.952 239.063 220.209 262.608 195.374C275.908 181.356 274.63 162.871 274.63 162.871L275.591 162.038C274.63 162.871 272.345 160.488 272.345 160.488C266.615 157.379 265.806 131.527 272.511 133.961C279.217 136.394 283.939 156.712 283.939 156.712L312.976 153.687C312.976 153.687 318.856 124.852 329.093 133.361C338.108 140.861 333.934 158.521 329.752 166.697C325.879 174.289 312.293 192.532 293.66 212.158C267.544 239.661 242.499 249.203 242.499 249.203" fill="#EA4531"/>
<path d="M217.374 232.952C217.374 232.952 239.063 220.209 262.608 195.374C275.908 181.356 274.63 162.871 274.63 162.871L275.591 162.038C274.63 162.871 272.345 160.488 272.345 160.488C266.615 157.379 265.806 131.527 272.511 133.961C279.217 136.394 283.939 156.712 283.939 156.712L312.976 153.687C312.976 153.687 318.856 124.852 329.093 133.361C338.108 140.861 333.934 158.521 329.752 166.697C325.879 174.289 312.293 192.532 293.66 212.158C267.544 239.661 242.499 249.203 242.499 249.203" stroke="#922C54" stroke-miterlimit="10" stroke-linecap="round"/>
<g style="mix-blend-mode:darken" opacity="0.2">
<path d="M238.158 246.811L216.731 232.952C216.731 232.952 238.419 220.209 261.965 195.374C275.265 181.356 273.987 162.871 273.987 162.871L274.947 162.038C273.987 162.871 271.702 160.488 271.702 160.488C267.845 158.396 266.226 146.028 267.615 138.886C271.646 145.67 274.217 156.712 274.217 156.712L283.105 155.737C283.256 156.321 283.335 156.654 283.335 156.654L312.364 153.629C312.364 153.629 315.189 139.819 320.3 134.136C328.116 142.036 324.093 158.754 320.054 166.638C316.189 174.23 302.595 192.473 283.97 212.1C265.139 232.027 246.887 242.502 238.158 246.811Z" fill="#922C54"/>
</g>
<path d="M287.978 157.563C287.978 162.822 293.088 167.072 299.389 167.072C305.69 167.072 310.808 162.822 310.808 157.563C310.808 152.304 305.619 152.696 299.31 152.696C293.001 152.696 287.978 152.313 287.978 157.563Z" fill="#FCBA5B"/>
<path d="M166.247 111.589C164.132 102.888 164.407 95.3015 166.861 94.6435C169.316 93.9855 173.02 100.506 175.135 109.206C177.25 117.907 176.975 125.494 174.52 126.152C172.066 126.81 168.361 120.29 166.247 111.589Z" fill="#FCBA5B" stroke="#932C54" stroke-miterlimit="10"/>
<path d="M153.928 129.294C158.872 127.327 162.951 95.7661 166.871 94.6493C166.871 94.6493 165.442 103.075 167.307 110.626C168.974 117.376 173.315 125.96 187.313 141.461" fill="#EA4531"/>
<path d="M153.928 129.294C158.872 127.327 162.951 95.7661 166.871 94.6493C166.871 94.6493 165.442 103.075 167.307 110.626C168.974 117.376 173.315 125.96 187.313 141.461" stroke="#922C54" stroke-miterlimit="10" stroke-linecap="round"/>
<path d="M123.09 124.435C146.897 110.267 174.767 110.501 196.479 122.568L200.225 123.893C203.598 125.085 211.946 124.802 215.438 124.085L234.618 122.018L237.388 127.694L229.889 132.477L214.755 137.319C217.866 140.873 220.619 144.755 222.969 148.903C242.546 183.573 229.579 228.826 194.004 249.978C158.428 271.13 113.71 260.179 94.1329 225.509C74.5556 190.84 87.5384 145.587 123.09 124.435Z" fill="#EA4531" stroke="#922C54" stroke-miterlimit="10" stroke-linecap="round"/>
<g style="mix-blend-mode:darken" opacity="0.2">
<path d="M193.011 249.978C157.435 271.138 112.718 260.179 93.1326 225.509C78.0548 198.749 82.3004 165.68 101.41 142.261C105.256 138.789 109.415 135.718 113.829 133.094C137.636 118.926 165.506 119.159 187.218 131.219L190.964 132.552C194.336 133.744 202.685 133.46 206.176 132.744L225.357 130.735L226.587 133.235L213.763 137.336C215.104 138.869 216.374 140.478 217.588 142.153L205.494 146.02C208.605 149.573 211.357 153.456 213.707 157.604C228.785 184.364 224.54 217.434 205.431 240.852C201.583 244.31 197.423 247.366 193.011 249.978Z" fill="#922C54"/>
</g>
<path d="M155.317 137.552C153.238 133.319 152.786 129.268 154.349 128.268C155.913 127.268 159.317 129.935 161.761 134.452L161.682 134.502C163.761 138.669 164.229 142.736 162.682 143.753C161.134 144.77 158.587 142.753 156.293 139.336C156.278 139.301 156.259 139.267 156.238 139.236C155.897 138.719 155.563 138.169 155.238 137.569L155.317 137.552Z" fill="#922C54"/>
<path d="M113.154 213.759C111.234 209.15 90.4502 177.356 120.971 164.18C130.16 160.213 163.308 165.23 172.259 163.047C203.264 155.479 216.159 129.236 216.159 129.236C226.301 120.902 237.411 127.694 237.411 127.694C237.411 127.694 247.728 140.603 243.117 163.272C244.236 191.14 236.943 221.609 211.946 236.677C177.767 257.337 134.644 246.928 113.154 213.759Z" fill="#FCBA5B" stroke="#932C54" stroke-miterlimit="10"/>
<path d="M62.2765 143.061C52.8015 130.769 47.9317 118.414 51.3995 115.466C54.8674 112.518 65.3596 120.093 74.8346 132.385C84.3096 144.677 89.1794 157.032 85.7115 159.98C82.2437 162.928 71.7514 155.353 62.2765 143.061Z" fill="#FCBA5B" stroke="#932C54" stroke-miterlimit="10"/>
<path d="M111.614 132.728C103.766 138.003 57.0249 110.826 51.3985 115.46C51.3985 115.46 64.2305 122.21 72.436 132.961C79.7606 142.512 84.9982 150.329 84.9982 192.508" fill="#EA4531"/>
<path d="M111.614 132.728C103.766 138.003 57.0249 110.826 51.3985 115.46C51.3985 115.46 64.2305 122.21 72.436 132.961C79.7606 142.512 84.9982 150.329 84.9982 192.508" stroke="#922C54" stroke-miterlimit="10" stroke-linecap="round"/>
<g style="mix-blend-mode:darken" opacity="0.2">
<path d="M110.503 135.278L85.0611 192.333C84.8945 151.913 80.0775 143.096 72.8719 133.678C70.691 130.799 68.2804 128.119 65.6663 125.669C81.6408 132.02 105.424 138.687 110.503 135.278Z" fill="#922C54"/>
</g>
<path d="M243.348 160.496L245.887 172.405C244.3 176.572 226.842 179.814 219.485 176.947L220.041 166.004L231.071 144.786L243.348 160.496Z" fill="white" stroke="#932C54" stroke-miterlimit="10" stroke-linecap="round"/>
<path d="M234.642 167.889C234.555 167.78 232.603 146.462 229.619 139.445" stroke="#932C54" stroke-miterlimit="10" stroke-linecap="round"/>
<path d="M231.262 145.02C231.262 145.02 208.383 205.95 166.514 187.207L231.262 145.02Z" fill="#FCBA5B"/>
<path d="M231.262 145.02C231.262 145.02 208.383 205.95 166.514 187.207" stroke="#932C54" stroke-miterlimit="10" stroke-linecap="round"/>
<path d="M231.261 145.02C231.261 145.02 249.402 184.948 242.895 139.445L231.261 145.02Z" fill="#FCBA5B"/>
<path d="M231.261 145.02C231.261 145.02 249.402 184.948 242.895 139.445" stroke="#932C54" stroke-miterlimit="10" stroke-linecap="round"/>
<path d="M237.738 125.593L231.389 140.003C231.286 140.328 231.107 140.621 230.868 140.855C230.629 141.088 230.337 141.254 230.02 141.337C229.704 141.42 229.372 141.418 229.056 141.33C228.741 141.243 228.451 141.073 228.215 140.836L215.042 128.102C214.073 127.152 212.335 123.585 213.542 123.101C220.684 120.184 223.795 120.209 234.032 120.518C237.412 120.618 238.118 124.476 237.738 125.593Z" fill="#922C54"/>
<path d="M168.498 181.356L163.602 190.79" stroke="#932C54" stroke-miterlimit="10" stroke-linecap="round"/>
<path d="M159.595 274.957C159.595 274.957 155.087 281.199 148.429 315.552C144.676 334.945 150.746 376.765 150.746 376.765C150.746 376.765 150.032 379.265 150.389 378.023C150.746 376.782 153.913 377.44 153.913 377.44C160.325 376.723 177.474 389.658 170.578 391.499C163.682 393.341 146.183 387.332 146.183 387.332C146.183 387.332 159.436 399.925 155.905 402.675C145.318 410.851 130.066 391.499 130.066 391.499C130.066 391.499 138.454 406.959 125.471 405.759C114.02 404.717 108.243 387.549 107.434 378.257C106.688 369.681 108.473 346.646 113.782 319.444C121.154 281.349 144.128 258.914 144.128 258.914" fill="#EA4531"/>
<path d="M159.595 274.957C159.595 274.957 155.087 281.199 148.429 315.552C144.676 334.945 150.746 376.765 150.746 376.765C150.746 376.765 150.032 379.265 150.389 378.023C150.746 376.782 153.913 377.44 153.913 377.44C160.325 376.723 177.474 389.658 170.578 391.499C163.682 393.341 146.183 387.332 146.183 387.332C146.183 387.332 159.436 399.925 155.905 402.675C145.318 410.851 130.066 391.499 130.066 391.499C130.066 391.499 138.454 406.959 125.471 405.759C114.02 404.717 108.243 387.549 107.434 378.257C106.688 369.681 108.473 346.646 113.782 319.444C121.154 281.349 144.128 258.914 144.128 258.914" stroke="#922C54" stroke-miterlimit="10" stroke-linecap="round"/>
<path d="M142.279 262.421L145.501 257.17L166.023 251.537L173.363 265.421L142.279 262.421Z" fill="#EA4531"/>
<g style="mix-blend-mode:darken" opacity="0.2">
<path d="M159.595 274.957C159.595 274.957 155.087 281.199 148.429 315.552C144.676 334.945 150.746 376.765 150.746 376.765C150.746 376.765 150.032 379.265 150.389 378.023C150.746 376.782 153.913 377.44 153.913 377.44C160.325 376.723 177.474 389.658 170.578 391.499C163.682 393.341 146.183 387.332 146.183 387.332C146.183 387.332 159.436 399.925 155.905 402.675C145.318 410.851 130.066 391.499 130.066 391.499C130.066 391.499 138.454 406.959 125.471 405.759C114.02 404.717 108.243 387.549 107.434 378.257C106.688 369.681 108.473 346.646 113.782 319.444C121.154 281.349 144.128 258.914 144.128 258.914" fill="#922C54"/>
</g>
<g style="mix-blend-mode:darken" opacity="0.46">
<path d="M142.279 262.421L145.501 257.17L166.023 251.537L173.363 265.421L142.279 262.421Z" fill="#922C54"/>
</g>
<path d="M214.851 234.802C216.763 244.761 240.792 258.478 245.887 257.987C247.768 257.803 260.616 254.87 260.616 254.87C260.616 254.87 292.287 243.961 313.404 265.962C324.625 277.63 331.354 298.29 331.291 311.474C331.18 337.993 302.722 391.48 234.642 372.237C186.488 358.62 166.046 294.39 166.046 268.721C166.046 245.144 154.246 244.477 154.246 244.477" fill="#FCBA5B"/>
<path d="M214.851 234.802C216.763 244.761 240.792 258.478 245.887 257.987C247.768 257.803 260.616 254.87 260.616 254.87C260.616 254.87 292.287 243.961 313.404 265.962C324.625 277.63 331.354 298.29 331.291 311.474C331.18 337.993 302.722 391.48 234.642 372.237C186.488 358.62 166.046 294.39 166.046 268.721C166.046 245.144 154.246 244.477 154.246 244.477" stroke="#932C54" stroke-miterlimit="10"/>
<path d="M287.835 157.471C295.694 160.374 304.021 161.623 312.34 161.146C320.659 160.669 328.806 158.475 336.318 154.691C343.829 150.906 350.557 145.605 356.117 139.09C361.678 132.574 365.961 124.972 368.724 116.718C380.349 81.9984 369.628 58.3799 365.478 54.4546C339.449 29.8194 237.983 46.4873 240.888 83.1568C243.094 111.742 254.775 145.27 287.835 157.471Z" fill="#922C54"/>
<path d="M348.992 71.2692C345.614 58.9876 331.611 52.4833 314.273 50.5031C337.838 48.2782 359.303 52.8171 362.738 67.561C368.522 92.3615 367.565 124.119 342.608 144.136C340.858 145.535 339.031 146.827 337.138 148.007C357.082 127.679 355.918 96.4183 348.992 71.2692Z" fill="#FCBA5B" stroke="#932C54" stroke-miterlimit="10"/>
<path d="M237.795 75.3123C232.386 51.9577 256.507 25.744 291.67 16.7624C326.833 7.78073 359.724 19.4323 365.132 42.7869C370.541 66.1415 346.42 92.3552 311.257 101.337C276.094 110.318 243.204 98.6669 237.795 75.3123Z" fill="#FCBA5B" stroke="#932C54" stroke-miterlimit="10"/>
<path d="M312.698 85.607C279.947 93.9409 248.99 81.7733 243.562 58.4965C242.912 55.6976 242.645 52.8156 242.769 49.9375C237.833 58.1882 235.896 67.0139 237.872 75.4728C243.3 98.758 276.186 110.401 311.317 101.5C346.448 92.5992 370.525 66.4972 365.129 43.2287C364.631 41.1242 363.907 39.0859 362.97 37.1532C361.955 57.7798 341.385 78.3314 312.698 85.607Z" fill="#FA904A"/>
<path d="M238.824 78.79C238.824 78.79 229.627 44.504 286.256 37.3368" stroke="#932C54" stroke-miterlimit="10"/>
<path d="M305.746 33.67C305.746 33.67 358.915 19.7605 365.827 47.7377" stroke="#932C54" stroke-miterlimit="10"/>
<path d="M303.555 37.1703C303.555 37.1703 358.724 55.4384 351.733 79.1986" stroke="#932C54" stroke-miterlimit="10"/>
<path d="M291.136 40.7284C291.136 40.7284 235.515 71.0224 254.632 96.4494" stroke="#932C54" stroke-miterlimit="10"/>
<path d="M293.708 41.704C293.708 41.704 263.624 87.9492 288.153 104.367" stroke="#932C54" stroke-miterlimit="10"/>
<path d="M299.603 39.7953C299.603 39.7953 318.054 86.9073 314.888 100.333" stroke="#932C54" stroke-miterlimit="10"/>
<path d="M261.171 30.5446C261.171 30.5446 265.329 26.4359 281.629 31.9864" stroke="#932C54" stroke-miterlimit="10"/>
<path d="M305.493 29.7358C305.493 29.7358 324.76 13.7095 338.751 17.3932" stroke="#932C54" stroke-miterlimit="10"/>
<path d="M304.191 23.3853C304.088 22.9102 305.937 15.2763 309.428 13.9179" stroke="#932C54" stroke-miterlimit="10"/>
<path d="M283.056 38.9048C281.845 33.6766 286.633 27.9649 293.749 26.1472C300.865 24.3296 307.615 27.0944 308.826 32.3225C310.037 37.5507 305.25 43.2625 298.134 45.0801C291.017 46.8978 284.267 44.133 283.056 38.9048Z" fill="#FA904A"/>
<path d="M237.795 75.3123C232.386 51.9577 256.507 25.744 291.67 16.7624C326.833 7.78073 359.724 19.4323 365.132 42.7869C370.541 66.1415 346.42 92.3552 311.257 101.337C276.094 110.318 243.204 98.6669 237.795 75.3123Z" stroke="#932C54" stroke-miterlimit="10"/>
<path d="M273.075 22.0517L285.423 36.4695C288.764 40.2114 291.533 42.0616 297.144 40.6364C302.754 39.2113 306.611 35.0194 305.746 31.2857L301.865 12.1176L273.075 22.0517Z" fill="#FA904A" stroke="#932C54" stroke-miterlimit="10"/>
<path d="M272.575 22.0604L273.186 22.7854L294.684 15.3265L298.469 33.9946C298.953 36.1115 297.882 38.37 295.834 40.1701H295.977C301.437 38.77 305.183 34.6864 304.342 31.0611L300.564 12.393L272.575 22.0604Z" fill="#FCBA5B"/>
<path d="M272.1 19.7235C270.834 14.2583 276.481 8.12333 284.713 6.02069C292.945 3.91805 300.644 6.64395 301.91 12.1092C303.176 17.5744 297.529 23.7093 289.297 25.812C281.065 27.9146 273.366 25.1887 272.1 19.7235Z" fill="#FCBA5B" stroke="#932C54" stroke-miterlimit="10"/>
<path d="M274.662 162.871C274.662 162.871 276.582 161.204 275.622 162.038C274.662 162.871 272.368 160.496 272.368 160.496C266.647 157.387 265.837 131.527 272.535 133.961C279.233 136.394 283.962 156.712 283.962 156.712" fill="#EA4531"/>
<path d="M274.662 162.871C274.662 162.871 276.582 161.204 275.622 162.038C274.662 162.871 272.368 160.496 272.368 160.496C266.647 157.387 265.837 131.527 272.535 133.961C279.233 136.394 283.962 156.712 283.962 156.712" stroke="#922C54" stroke-miterlimit="10" stroke-linecap="round"/>
<g style="mix-blend-mode:darken" opacity="0.2">
<path d="M274.662 162.871C274.662 162.871 276.582 161.204 275.622 162.038C274.662 162.871 272.368 160.496 272.368 160.496C266.647 157.387 265.837 131.527 272.535 133.961C279.233 136.394 283.962 156.712 283.962 156.712" fill="#922C54"/>
</g>
<defs>
<radialGradient id="paint0_radial_47_17568" cx="0" cy="0" r="1" gradientUnits="userSpaceOnUse" gradientTransform="translate(316.133 112) rotate(90) scale(112 316.133)">
<stop stop-color="#8F2D56"/>
<stop offset="1" stop-color="#8F2D56" stop-opacity="0"/>
</radialGradient>
</defs>
</svg>
