<svg width="487" height="357" viewBox="0 0 487 357" fill="none" xmlns="http://www.w3.org/2000/svg">
<ellipse cx="250.011" cy="328.173" rx="250.011" ry="28.8261" fill="url(#paint0_radial_47_17507)" fill-opacity="0.46"/>
<path d="M352.05 119.26C339.225 189.33 234.035 182.099 245.143 105.301C252.438 54.8187 340.834 27.3548 377.295 83.1048C383.93 93.2496 388.758 105.16 391.891 118.31C401.037 156.691 394.784 208.705 372.75 241.422C324.012 313.733 269.956 297.137 269.956 297.137C217.637 304.396 260.031 273.636 268.538 269.538C323.303 243.308 299.575 167.453 299.575 167.453" fill="#EA4531"/>
<path d="M352.05 119.26C339.225 189.33 234.035 182.099 245.143 105.301C252.438 54.8187 340.834 27.3548 377.295 83.1048C383.93 93.2496 388.758 105.16 391.891 118.31C401.037 156.691 394.784 208.705 372.75 241.422C324.012 313.733 269.956 297.137 269.956 297.137C217.637 304.396 260.031 273.636 268.538 269.538C323.303 243.308 299.575 167.453 299.575 167.453" stroke="#922C54" stroke-miterlimit="10" stroke-linecap="round"/>
<g style="mix-blend-mode:darken" opacity="0.2">
<path d="M323.551 160.377C316.2 164.432 308.028 166.771 299.646 167.219L299.568 167.445C299.568 167.445 321.502 232.688 278.427 263.689C272.876 267.695 273.316 276.45 272.699 277.868C335.12 267.461 371.034 164.631 352.049 119.26C351.858 118.806 351.667 118.395 351.482 117.969C350.637 126.78 347.65 135.25 342.782 142.642C337.913 150.033 331.311 156.122 323.551 160.377Z" fill="#922C54"/>
</g>
<g style="mix-blend-mode:darken" opacity="0.2">
<path d="M350.745 116.354C345.782 123.216 338.693 128.951 330.59 133.46C324.301 136.931 317.407 139.169 310.279 140.053C289.309 142.683 268.006 133.673 258.527 116.559C254.678 109.612 252.452 93.0795 252.714 85.4373C240.584 103.586 243.427 129.391 252.275 144.314C261.235 159.4 280.178 168.318 299.645 167.233C308.029 166.781 316.201 164.438 323.55 160.378C331.317 156.118 337.924 150.021 342.792 142.62C347.661 135.22 350.645 126.739 351.482 117.92C351.567 116.949 351.631 115.978 351.666 115.007C351.368 115.467 351.056 115.914 350.745 116.354Z" fill="#922C54"/>
</g>
<path d="M264.113 305.403C264.113 305.403 302.849 313.272 290.407 324.494C284.949 329.414 264.652 328.557 253.954 324.494C243.257 320.432 217.005 322.368 218.061 319.567C219.118 316.767 264.113 305.403 264.113 305.403Z" fill="#EA4531" stroke="#922C54" stroke-miterlimit="10"/>
<g style="mix-blend-mode:darken" opacity="0.2">
<path d="M285.857 324.63C280.398 329.557 244.222 318.816 265.234 305.644C270.473 302.362 237.877 315.243 229.788 314.861C223.309 316.874 218.41 318.66 218.07 319.568C217.013 322.403 243.258 320.433 253.963 324.495C264.667 328.557 284.957 329.415 290.416 324.495C293.542 321.666 286.29 324.247 285.857 324.63Z" fill="#922C54"/>
</g>
<path d="M132.849 178.533C132.849 178.533 140.407 196.398 139.23 203.459C138.053 210.52 124.009 275.359 131.006 286.914C138.003 298.47 149.559 321.538 203.04 322.219C221.536 322.453 264.66 313.23 272.912 297.825C281.164 282.42 283.078 241.33 259.974 214.37C236.87 187.409 221.458 174.556 223.379 162.377C225.301 150.198 240.068 115.588 236.849 90.194C233.631 64.8003 220.168 39.761 213.745 39.761C207.322 39.761 210.278 47.3465 210.278 47.3465C210.278 47.3465 209.499 37.9674 202.154 41.8665C197.652 44.2556 202.204 52.2806 202.204 52.2806C202.204 52.2806 199.077 44.4824 195.164 47.3181C190.655 50.6288 191.953 61.3124 191.953 61.3124L198.978 85.4159L132.849 178.533Z" fill="#EA4531" stroke="#922C54" stroke-miterlimit="10" stroke-linecap="round"/>
<g style="mix-blend-mode:darken" opacity="0.2">
<path d="M155.981 284.057C148.984 272.502 159.065 208.563 159.483 201.41C160.029 191.946 152.784 181.787 152.784 181.787L217.098 93.6322L208.342 61.3406C208.342 61.3406 207.045 50.657 211.554 47.3464C214.304 45.333 216.665 48.5799 217.821 50.6925C216.814 48.3601 215.46 44.0782 218.069 42.1854C216.516 40.6328 215.091 39.775 213.907 39.775C210.115 39.775 209.597 42.4193 209.803 44.5886C208.924 42.1854 206.896 39.4489 202.316 41.8805C199.069 43.6032 200.53 48.2609 201.607 50.7067C200.445 48.5799 198.063 45.3472 195.341 47.3605C190.832 50.6712 192.129 61.3548 192.129 61.3548L199.155 85.4583L132.998 178.533C132.998 178.533 140.562 196.398 139.378 203.459C138.194 210.52 124.164 275.358 131.161 286.914C138.159 298.469 147.105 323.332 203.188 322.219C245.965 321.368 267.85 302.681 268.53 302.574C203.188 322.219 162.312 294.521 155.981 284.057Z" fill="#922C54"/>
</g>
<path d="M213.713 67.6298C217.891 65.3716 219.825 60.8521 218.032 57.5352C216.24 54.2182 211.399 53.3598 207.221 55.618C203.043 57.8761 201.11 62.3956 202.902 65.7126C204.695 69.0295 209.535 69.8879 213.713 67.6298Z" fill="#FCBA5B"/>
<path d="M207.121 51.9405C208.741 51.3802 209.463 49.2131 208.733 47.1002C208.002 44.9872 206.096 43.7285 204.475 44.2888C202.855 44.8491 202.133 47.0162 202.863 49.1292C203.594 51.2421 205.5 52.5008 207.121 51.9405Z" fill="#FCBA5B"/>
<path d="M199.881 58.6464C201.386 57.8328 201.742 55.5734 200.675 53.5997C199.608 51.6261 197.523 50.6856 196.018 51.4992C194.513 52.3127 194.157 54.5721 195.224 56.5458C196.291 58.5194 198.376 59.4599 199.881 58.6464Z" fill="#FCBA5B"/>
<path d="M215.834 50.3608C217.189 50.0714 217.986 48.4214 217.613 46.6754C217.24 44.9294 215.839 43.7485 214.484 44.0378C213.128 44.3272 212.332 45.9772 212.704 47.7232C213.077 49.4693 214.478 50.6502 215.834 50.3608Z" fill="#FCBA5B"/>
<path d="M185.497 173.618C217.868 156.122 230.182 116.17 213.001 84.3812C195.82 52.5928 155.651 41.006 123.28 58.5014C90.9098 75.9967 78.5961 115.949 95.7769 147.738C112.958 179.526 153.127 191.113 185.497 173.618Z" fill="#EA4531" stroke="#922C54" stroke-miterlimit="10" stroke-linecap="round"/>
<path d="M132.778 120.89C132.558 120.593 133.012 121.181 132.778 120.89C129.339 116.637 125.306 114.283 123.767 115.68C122.229 117.076 124.136 122.131 127.525 126.377C128.375 125.498 131.608 121.309 132.778 120.89Z" fill="#922C54"/>
<path d="M176.505 100.169C177.91 99.939 179.336 99.8605 180.758 99.9347C180.638 99.5661 180.517 99.2258 180.382 98.8217C178.405 93.3984 175.044 89.6056 172.882 90.3146C170.72 91.0235 170.571 95.9293 172.506 101.317C173.793 100.79 175.134 100.405 176.505 100.169Z" fill="#922C54"/>
<path d="M125.484 130.043C125.484 130.043 127.001 126.718 127.915 125.79C128.83 124.861 132.608 118.743 136.536 118.041" stroke="#932C54" stroke-miterlimit="10" stroke-linecap="round"/>
<path d="M168.778 103.82C168.778 103.82 171.692 101.693 172.932 101.332C174.173 100.97 182.779 98.6732 186.629 99.7862" stroke="#932C54" stroke-miterlimit="10" stroke-linecap="round"/>
<path d="M218.395 97.9921C216.523 94.1427 213.227 93.2778 209.838 93.7882C201.061 95.1068 203.039 103.536 189.733 113.787C177.596 123.138 164.467 112.575 164.467 112.575C157.719 113.955 151.457 117.098 146.318 121.684C146.318 121.684 149.203 135.005 136.662 139.649C128.382 142.718 97.7353 132.084 104.952 156.365C105.892 159.136 107.108 161.806 108.582 164.334C117.517 172.538 128.532 178.132 140.428 180.507C152.324 182.883 164.643 181.947 176.043 177.803C209.214 165.964 227.441 130.886 218.395 97.9921Z" fill="#FCBA5B" stroke="#932C54" stroke-miterlimit="10"/>
<g style="mix-blend-mode:darken" opacity="0.2">
<path d="M150.898 149.397L154.755 157.954C158.654 159.017 179.929 150.042 183.651 143.066L178.844 136.275L164.226 133.673L150.898 149.397Z" fill="#922C54"/>
</g>
<path d="M152.777 181.788C152.777 181.788 160.873 196.172 159.342 205.388C157.811 214.604 151.65 250.405 152.961 267.164C154.379 285.504 161.681 321.234 214.113 317.349C248.645 314.797 255.94 283.235 256.876 267.164C259.995 214.229 211.902 187.14 211.902 164.887C211.902 145.746 211.987 147.731 211.987 147.731C208.309 154.396 203.011 160.026 196.582 164.1" fill="#FCBA5B"/>
<path d="M152.777 181.788C152.777 181.788 160.873 196.172 159.342 205.388C157.811 214.604 151.65 250.405 152.961 267.164C154.379 285.504 161.681 321.234 214.113 317.349C248.645 314.797 255.94 283.235 256.876 267.164C259.995 214.229 211.902 187.14 211.902 164.887C211.902 145.746 211.987 147.731 211.987 147.731C208.309 154.396 203.011 160.026 196.582 164.1" stroke="#932C54" stroke-miterlimit="10"/>
<g style="mix-blend-mode:darken" opacity="0.46">
<g style="mix-blend-mode:darken" opacity="0.2">
<path d="M196.582 164.1L207.74 157.386C209.043 156.603 210.12 155.494 210.866 154.17C211.611 152.845 212 151.349 211.994 149.829C211.994 148 211.994 148 211.994 147.759C211.696 148.326 204.905 159.137 196.582 164.1Z" fill="#922C54"/>
</g>
<g style="mix-blend-mode:darken" opacity="0.2">
<path d="M229.86 309.847C177.399 313.725 167.538 288.133 164.447 270.006C160.902 249.319 164.525 213.292 166.063 204.076C167.368 196.277 175.988 181.773 173.642 178.519C169.445 180.326 158.691 182.028 152.785 181.773C152.785 181.773 160.881 196.157 159.35 205.373C157.819 214.589 151.658 250.39 152.97 267.149C154.387 285.489 161.689 321.211 214.122 317.334C224.387 316.575 232.249 313.257 238.225 308.536C235.477 309.202 232.679 309.641 229.86 309.847Z" fill="#922C54"/>
</g>
</g>
<path d="M132.849 178.533C132.849 178.533 135.635 185.856 112.29 209.251C105.513 216.035 90.3133 237.154 89.1507 244.385C87.8959 252.183 89.2854 267.631 98.9835 271.027C109.993 274.883 109.49 262.378 109.49 262.378L120.351 257.997C120.351 257.997 114.594 268.553 120.932 268.553C127.27 268.553 134.791 252.403 129.092 251.574C129.092 251.574 126.497 250.319 125.923 251.276L126.497 250.319C130.921 245.603 134.347 240.043 136.571 233.971C141.328 220.771 143.093 199.574 143.093 199.574" fill="#EA4531"/>
<path d="M132.849 178.533C132.849 178.533 135.635 185.856 112.29 209.251C105.513 216.035 90.3133 237.154 89.1507 244.385C87.8959 252.183 89.2854 267.631 98.9835 271.027C109.993 274.883 109.49 262.378 109.49 262.378L120.351 257.997C120.351 257.997 114.594 268.553 120.932 268.553C127.27 268.553 134.791 252.403 129.092 251.574C129.092 251.574 126.497 250.319 125.923 251.276L126.497 250.319C130.921 245.603 134.347 240.043 136.571 233.971C141.328 220.771 143.093 199.574 143.093 199.574" stroke="#922C54" stroke-miterlimit="10" stroke-linecap="round"/>
<g style="mix-blend-mode:darken" opacity="0.2">
<path d="M132.849 178.533C132.849 178.533 135.635 185.856 112.29 209.251C105.512 216.035 90.3131 237.154 89.1504 244.385C87.8956 252.183 87.4915 264.583 97.1826 267.978C108.192 271.828 106.583 253.8 106.583 253.8L109.49 262.399L120.35 258.018C120.35 258.018 115.055 264.59 121.385 264.59C127.716 264.59 132.728 251.772 127.057 250.943C127.057 250.943 126.49 250.326 125.915 251.283L126.49 250.326C130.913 245.61 134.34 240.05 136.563 233.978C141.32 220.778 143.086 199.581 143.086 199.581" fill="#922C54"/>
</g>
<path d="M174.123 49.2133C178.041 48.4795 179.209 37.1652 176.732 23.9423C174.255 10.7193 169.071 0.59493 165.153 1.3288C161.236 2.06267 160.068 13.3769 162.545 26.5999C165.022 39.8228 170.206 49.9472 174.123 49.2133Z" fill="#FCBA5B" stroke="#932C54" stroke-miterlimit="10"/>
<g style="mix-blend-mode:darken" opacity="0.2">
<path d="M169.357 58.5458C173.659 57.7399 175.813 49.9642 174.167 41.1784C172.521 32.3926 167.699 25.9237 163.397 26.7296C159.094 27.5356 156.94 35.3113 158.586 44.0971C160.232 52.8829 165.054 59.3518 169.357 58.5458Z" fill="#922C54"/>
</g>
<path d="M141.469 51.8129C149.423 49.3813 158.887 2.59918 165.147 1.3302C165.147 1.3302 162.091 13.779 164.289 25.2707C166.246 35.5288 173.64 51.6995 196.985 65.0344" fill="#EA4531"/>
<path d="M141.469 51.8129C149.423 49.3813 158.887 2.59918 165.147 1.3302C165.147 1.3302 162.091 13.779 164.289 25.2707C166.246 35.5288 173.64 51.6995 196.985 65.0344" stroke="#922C54" stroke-miterlimit="10" stroke-linecap="round"/>
<g style="mix-blend-mode:darken" opacity="0.46">
<g style="mix-blend-mode:darken" opacity="0.2">
<path d="M163.333 9.37615C163.596 6.66991 164.027 3.98262 164.623 1.32983C158.356 2.59881 148.899 49.3809 140.945 51.8125L145.482 50.9405C147.962 50.4638 150.264 49.3172 152.139 47.6251C154.013 45.933 155.389 43.76 156.116 41.3417C158.93 31.9626 161.114 18.5 163.333 9.37615Z" fill="#922C54"/>
</g>
</g>
<path d="M83.9208 91.8242C87.1745 89.5222 83.5133 78.7532 75.7433 67.771C67.9732 56.7888 59.0366 49.7522 55.7829 52.0543C52.5292 54.3563 56.1904 65.1253 63.9604 76.1075C71.7305 87.0897 80.667 94.1263 83.9208 91.8242Z" fill="#FCBA5B" stroke="#932C54" stroke-miterlimit="10"/>
<g style="mix-blend-mode:darken" opacity="0.2">
<path d="M83.9208 91.8242C87.1745 89.5222 83.5133 78.7532 75.7433 67.771C67.9732 56.7888 59.0366 49.7522 55.7829 52.0543C52.5292 54.3563 56.1904 65.1253 63.9604 76.1075C71.7305 87.0897 80.667 94.1263 83.9208 91.8242Z" fill="#922C54"/>
</g>
<path d="M108.511 70.1887C101.224 74.2083 61.0488 48.4388 55.7814 52.0543C55.7814 52.0543 66.8478 58.5197 73.5684 68.0973C79.5659 76.647 84.9112 90.1946 88.3141 121.976" fill="#EA4531"/>
<path d="M108.511 70.1887C101.224 74.2083 61.0488 48.4388 55.7814 52.0543C55.7814 52.0543 66.8478 58.5197 73.5684 68.0973C79.5659 76.647 84.9112 90.1946 88.3141 121.976" stroke="#922C54" stroke-miterlimit="10" stroke-linecap="round"/>
<g style="mix-blend-mode:darken" opacity="0.2">
<path d="M78.5734 66.9347C74.2419 62.3621 57.5041 50.8704 55.7814 52.0472C55.7814 52.0472 66.8478 58.5126 73.5684 68.0902C79.5659 76.6399 84.9112 90.1875 88.3141 121.969C88.0872 98.9002 94.8149 82.1411 107.235 70.5431C92.993 84.6366 86.1377 74.9172 78.5734 66.9347Z" fill="#922C54"/>
</g>
<path d="M279.491 315.307C279.491 315.307 291.89 317.518 292.252 322.318L279.491 315.307Z" fill="#EA4531"/>
<path d="M279.491 315.307C279.491 315.307 291.89 317.518 292.252 322.318" stroke="#922C54" stroke-miterlimit="10"/>
<path d="M272.791 318.817C272.791 318.817 288.777 322.319 285.856 326.898L272.791 318.817Z" fill="#EA4531"/>
<path d="M272.791 318.817C272.791 318.817 288.777 322.319 285.856 326.898" stroke="#922C54" stroke-miterlimit="10"/>
<g style="mix-blend-mode:darken" opacity="0.2">
<path d="M123.476 160.307C101.365 134.148 95.3108 88.3938 117.266 62.1493C113.586 64.7571 110.097 67.6237 106.824 70.7273C82.784 94.5898 81.9617 137.423 107.497 163.008C133.033 188.593 172.896 188.239 198.311 163.93L196.099 164.986C170.294 183.326 144.397 185.049 123.476 160.307Z" fill="#922C54"/>
</g>
<path d="M177.192 322.822C176.71 316.845 166.792 311.975 153.96 311.975C141.129 311.975 130.729 316.831 130.729 322.822C130.729 332.257 141.129 333.668 153.96 333.668C166.792 333.668 178.021 333.122 177.192 322.822Z" fill="#EA4531" stroke="#922C54" stroke-miterlimit="10"/>
<path d="M154.584 333.151C163.139 333.151 170.074 332.052 170.074 330.698C170.074 329.343 163.139 328.245 154.584 328.245C146.03 328.245 139.094 329.343 139.094 330.698C139.094 332.052 146.03 333.151 154.584 333.151Z" fill="#FCBA5B"/>
<g style="mix-blend-mode:darken" opacity="0.45">
<path d="M142.405 329.188C140.342 329.606 139.094 330.131 139.094 330.698C139.094 332.981 145.106 333.137 152.84 333.144C148.332 332.57 144.667 331.414 142.405 329.188Z" fill="#FA904A"/>
</g>
<g style="mix-blend-mode:darken" opacity="0.2">
<path d="M139.094 322.822C139.094 317.498 147.304 313.074 158.129 312.152C156.782 312.039 155.392 311.975 153.96 311.975C141.129 311.975 130.729 316.831 130.729 322.822C130.729 332.257 141.129 333.668 153.96 333.668C155.577 333.668 157.172 333.668 158.717 333.626C147.601 333.356 139.094 331.357 139.094 322.822Z" fill="#922C54"/>
</g>
<path d="M154.393 149.397L158.25 157.954C162.149 159.017 183.424 150.042 187.145 143.066L182.339 136.275L164.226 133.673L154.393 149.397Z" fill="white" stroke="#932C54" stroke-miterlimit="10" stroke-linecap="round"/>
<path d="M173.64 153.097L160.908 126.378" stroke="#932C54" stroke-miterlimit="10" stroke-linecap="round"/>
<path d="M164.468 133.184C164.468 133.184 194.243 144.526 191.825 121.99L164.468 133.184Z" fill="#FCBA5B"/>
<path d="M164.468 133.184C164.468 133.184 194.243 144.526 191.825 121.99" stroke="#932C54" stroke-miterlimit="10" stroke-linecap="round"/>
<path d="M164.446 133.198C164.446 133.198 161.539 159.726 139.201 146.192L164.446 133.198Z" fill="#FCBA5B"/>
<path d="M164.446 133.198C164.446 133.198 161.539 159.726 139.201 146.192" stroke="#932C54" stroke-miterlimit="10" stroke-linecap="round"/>
<path d="M144.922 122.288L160.703 129.767C160.918 129.92 161.169 130.015 161.431 130.044C161.694 130.073 161.959 130.034 162.203 129.932C162.446 129.83 162.659 129.667 162.822 129.46C162.986 129.252 163.093 129.007 163.135 128.746L166.041 113.029C166.084 112.78 166.076 112.526 166.015 112.281C165.955 112.036 165.844 111.806 165.69 111.606C165.536 111.406 165.342 111.24 165.121 111.119C164.899 110.998 164.655 110.924 164.404 110.902C159.867 110.668 150.651 114.872 144.27 120.012C143.561 120.558 144.178 121.791 144.922 122.288Z" fill="#922C54"/>
<defs>
<radialGradient id="paint0_radial_47_17507" cx="0" cy="0" r="1" gradientUnits="userSpaceOnUse" gradientTransform="translate(250.011 328.173) rotate(90) scale(28.8261 250.011)">
<stop stop-color="#8F2D56"/>
<stop offset="1" stop-color="#8F2D56" stop-opacity="0"/>
</radialGradient>
</defs>
</svg>
