<svg width="32" height="32" viewBox="0 0 32 32" fill="none" xmlns="http://www.w3.org/2000/svg">
<path d="M16.3253 5.33313C17.0373 5.33713 18.8187 5.35446 20.712 5.43046L21.384 5.4598C23.2893 5.54913 25.1933 5.7038 26.1387 5.96646C27.3987 6.32113 28.388 7.35313 28.7227 8.66246C29.256 10.7425 29.3227 14.7985 29.3307 15.7811L29.332 15.9838V16.2158C29.3227 17.1985 29.256 21.2558 28.7227 23.3345C28.384 24.6478 27.3933 25.6811 26.1387 26.0305C25.1933 26.2931 23.2893 26.4478 21.384 26.5371L20.712 26.5678C18.8187 26.6425 17.0373 26.6611 16.3253 26.6638L16.012 26.6651H15.672C14.1653 26.6558 7.864 26.5878 5.85866 26.0305C4.6 25.6758 3.60933 24.6438 3.27466 23.3345C2.74133 21.2545 2.67466 17.1985 2.66666 16.2158V15.7811C2.67466 14.7985 2.74133 10.7411 3.27466 8.66246C3.61333 7.34913 4.604 6.3158 5.86 5.9678C7.864 5.40913 14.1667 5.34113 15.6733 5.33313H16.3253ZM13.332 11.3331V20.6665L21.332 15.9998L13.332 11.3331Z" fill="white"/>
</svg>
